<svg xmlns="http://www.w3.org/2000/svg" viewBox="0 0 1600 620" role="img" aria-labelledby="t d">
<title id="t">Amrrish Roshan — Black Bulls inspired developer workstation</title><desc id="d">A premium black, gold and crimson animated developer workstation.</desc>
<defs>
 <linearGradient id="bg" x1="0" y1="0" x2="1" y2="1"><stop stop-color="#030303"><animate attributeName="stop-color" values="#030303;#0d0a05;#030303" dur="9s" repeatCount="indefinite"/></stop><stop offset=".5" stop-color="#120e08"/><stop offset="1" stop-color="#050303"/></linearGradient>
 <linearGradient id="gold" x1="0" x2="1"><stop stop-color="#8A6A1F"/><stop offset=".45" stop-color="#D4AF37"><animate attributeName="stop-color" values="#D4AF37;#FFE08A;#D4AF37" dur="5s" repeatCount="indefinite"/></stop><stop offset="1" stop-color="#8A6A1F"/></linearGradient>
 <filter id="glow"><feGaussianBlur stdDeviation="5" result="b"/><feMerge><feMergeNode in="b"/><feMergeNode in="SourceGraphic"/></feMerge></filter>
 <filter id="soft"><feGaussianBlur stdDeviation="28"/></filter>
 <pattern id="grid" width="32" height="32" patternUnits="userSpaceOnUse"><path d="M32 0H0V32" fill="none" stroke="#D4AF37" stroke-opacity=".055"/></pattern>
</defs>
<rect width="1600" height="620" rx="30" fill="url(#bg)"/><rect width="1600" height="620" rx="30" fill="url(#grid)"/>
<circle cx="260" cy="140" r="170" fill="#D4AF37" opacity=".055" filter="url(#soft)"><animate attributeName="cx" values="260;360;260" dur="11s" repeatCount="indefinite"/></circle>
<circle cx="1320" cy="470" r="190" fill="#8B1E1E" opacity=".07" filter="url(#soft)"><animate attributeName="cy" values="470;405;470" dur="13s" repeatCount="indefinite"/></circle>
<path d="M-80 520C260 330 450 650 790 450S1250 340 1680 150" fill="none" stroke="url(#gold)" stroke-width="3" opacity=".48"><animate attributeName="stroke-dasharray" values="0 2300;700 1600;0 2300" dur="8s" repeatCount="indefinite"/></path>
<rect x="26" y="26" width="1548" height="568" rx="24" fill="#050505" fill-opacity=".90" stroke="url(#gold)" stroke-opacity=".72" stroke-width="2"/>
<rect x="26" y="26" width="1548" height="52" rx="24" fill="#11100C"/>
<circle cx="55" cy="52" r="6" fill="#8B1E1E"/><circle cx="76" cy="52" r="6" fill="#D4AF37"/><circle cx="97" cy="52" r="6" fill="#8F7A35"/>
<g font-family="ui-monospace,SFMono-Regular,Menlo,monospace">
<text x="800" y="57" text-anchor="middle" fill="#B9A56A" font-size="14" letter-spacing="3">AMRRISH@DEV :: BLACK BULLS WORKSTATION</text>
<text x="62" y="118" fill="#D4AF37" font-size="15">amrrish@dev</text><text x="162" y="118" fill="#6D6251" font-size="15">:</text><text x="174" y="118" fill="#B99A4A" font-size="15">~/workspace</text><text x="278" y="118" fill="#F5F1E8" font-size="15">$ ./launch</text>
<text x="62" y="164" fill="#D4AF37" font-size="11" letter-spacing="2">IDENTITY</text><text x="62" y="204" fill="#F5F1E8" font-size="39" font-weight="700" letter-spacing="4">AMRRISH ROSHAN</text>
<text x="62" y="233" fill="#A69C8D" font-size="13" letter-spacing="1.5">FULL-STACK  /  AI  /  BACKEND  /  PRODUCT ENGINEERING</text>
<rect x="62" y="250" width="640" height="2" fill="url(#gold)"/>
<rect x="62" y="278" width="650" height="250" rx="18" fill="#090807" stroke="#D4AF37" stroke-opacity=".20"/>
<text x="88" y="316" fill="#E6CE7A" font-size="13">$ cat ~/.focus</text>
<text x="88" y="348" fill="#EAE4D9" font-size="14">web systems · APIs · intelligent products</text><text x="88" y="378" fill="#EAE4D9" font-size="14">React · Next.js · Node · Python · databases</text><text x="88" y="408" fill="#EAE4D9" font-size="14">AI agents · automation · cloud workflows</text>
<text x="88" y="450" fill="#D4AF37" font-size="13">$ ./build --fast</text><text x="224" y="450" fill="#F5F1E8" font-size="13"><animate attributeName="opacity" values="1;.3;1" dur="1.1s" repeatCount="indefinite"/>COMPILING ██████████ 100%</text>
<text x="88" y="482" fill="#81786B" font-size="11">hot reload enabled · runtime online · shipping</text>
<text x="88" y="513" fill="#B99A4A" font-size="13">$ echo $MODE</text><text x="224" y="513" fill="#F5F1E8" font-size="13">CREATE / ITERATE</text>
<rect x="760" y="112" width="778" height="416" rx="22" fill="#080706" stroke="url(#gold)" stroke-width="2" stroke-opacity=".58"/>
<text x="796" y="149" fill="#D4AF37" font-size="11" letter-spacing="2">LIVE PROJECT MATRIX</text>
<g fill="none" stroke-linecap="round"><path d="M820 226C950 135 1025 320 1155 221S1340 154 1480 238" stroke="#D4AF37" stroke-width="3" opacity=".72"><animate attributeName="stroke-dasharray" values="0 900;360 540;0 900" dur="4s" repeatCount="indefinite"/></path><path d="M820 288C950 210 1030 390 1155 290S1340 226 1480 305" stroke="#F0D77A" stroke-width="3" opacity=".55"><animate attributeName="stroke-dasharray" values="0 900;430 470;0 900" dur="5s" repeatCount="indefinite"/></path><path d="M820 350C950 275 1030 455 1155 354S1340 285 1480 370" stroke="#8B1E1E" stroke-width="3" opacity=".65"><animate attributeName="stroke-dasharray" values="0 900;300 600;0 900" dur="4.5s" repeatCount="indefinite"/></path></g>
<g><circle cx="820" cy="226" r="7" fill="#D4AF37" filter="url(#glow)"><animate attributeName="r" values="5;10;5" dur="1.6s" repeatCount="indefinite"/></circle><circle cx="1155" cy="221" r="7" fill="#F0D77A" filter="url(#glow)"/><circle cx="1480" cy="238" r="7" fill="#8B1E1E" filter="url(#glow)"/></g>
<g fill="#B8AE9E" font-size="12"><text x="802" y="418">FRONTEND</text><text x="900" y="418" fill="#D4AF37">ACTIVE</text><text x="1020" y="418">BACKEND</text><text x="1110" y="418" fill="#D4AF37">BUILDING</text><text x="1248" y="418">AI</text><text x="1282" y="418" fill="#D4AF37">EXPERIMENT</text></g>
<path d="M802 444H1480" stroke="#3A3021"/><text x="802" y="476" fill="#D4AF37" font-size="12">$ pipeline --status</text><text x="948" y="476" fill="#D8D0C3" font-size="12">code → intelligence → product</text><circle cx="1468" cy="472" r="5" fill="#D4AF37" filter="url(#glow)"><animate attributeName="opacity" values="1;.2;1" dur="1.4s" repeatCount="indefinite"/></circle>
</g>
<text x="62" y="576" fill="#6F6558" font-family="ui-monospace,monospace" font-size="9" letter-spacing="2">AMRRISH / BLACK BULLS INSPIRED DEV WORKSTATION</text>
<text x="1535" y="576" text-anchor="end" fill="#D4AF37" font-family="ui-monospace,monospace" font-size="9">● LIVE</text>
</svg>